<?xml version="1.0" encoding="UTF-8" standalone="no"?>
<svg
   xmlns:dc="http://purl.org/dc/elements/1.1/"
   xmlns:cc="http://creativecommons.org/ns#"
   xmlns:rdf="http://www.w3.org/1999/02/22-rdf-syntax-ns#"
   xmlns:svg="http://www.w3.org/2000/svg"
   xmlns="http://www.w3.org/2000/svg"
   xmlns:sodipodi="http://sodipodi.sourceforge.net/DTD/sodipodi-0.dtd"
   xmlns:inkscape="http://www.inkscape.org/namespaces/inkscape"
   version="1.0"
   width="1280.000000pt"
   height="934.000000pt"
   viewBox="0 0 1280.000000 934.000000"
   preserveAspectRatio="xMidYMid meet"
   id="svg8"
   sodipodi:docname="Button.svg"
   inkscape:export-filename="C:\Users\cw\Documents\bisslMalSchauen\Assets\Ressourcen\Button.png"
   inkscape:export-xdpi="128"
   inkscape:export-ydpi="128"
   inkscape:version="0.92.3 (2405546, 2018-03-11)">
  <metadata
     id="metadata14">
    <rdf:RDF>
      <cc:Work
         rdf:about="">
        <dc:format>image/svg+xml</dc:format>
        <dc:type
           rdf:resource="http://purl.org/dc/dcmitype/StillImage" />
      </cc:Work>
    </rdf:RDF>
  </metadata>
  <defs
     id="defs12" />
  <sodipodi:namedview
     pagecolor="#ffffff"
     bordercolor="#666666"
     borderopacity="1"
     objecttolerance="10"
     gridtolerance="10"
     guidetolerance="10"
     inkscape:pageopacity="0"
     inkscape:pageshadow="2"
     inkscape:window-width="3200"
     inkscape:window-height="1644"
     id="namedview10"
     showgrid="false"
     inkscape:zoom="0.18950749"
     inkscape:cx="853.33333"
     inkscape:cy="622.66667"
     inkscape:window-x="-16"
     inkscape:window-y="-16"
     inkscape:window-maximized="1"
     inkscape:current-layer="svg8" />
  <g
     transform="translate(0.000000,934.000000) scale(0.100000,-0.100000)"
     fill="#607d8b"
     stroke="none"
     id="g6">
    <path
       d="M1325 9325 c-22 -8 -42 -15 -45 -15 -15 0 -1235 -1232 -1253 -1265 -33 -61 -31 -165 5 -225 16 -26 679 -697 1588 -1605 l1561 -1560 -1550 -1545 c-1105 -1101 -1556 -1557 -1571 -1587 -31 -64 -35 -121 -15 -184 16 -51 51 -88 634 -672 357 -359 633 -627 656 -640 54 -29 164 -30 218 -1 52 27 4493 4468 4520 4519 29 56 29 155 0 210 -26 50 -4496 4520 -4553 4553 -51 30 -140 38 -195 17z"
       id="path2" />
    <path
       d="M8025 9325 c-22 -8 -42 -15 -45 -15 -2 0 -281 -276 -618 -612 -366 -366 -622 -629 -634 -653 -33 -62 -31 -156 5 -221 21 -37 446 -468 1588 -1610 l1560 -1559 -1552 -1550 c-989 -989 -1559 -1564 -1572 -1590 -24 -47 -27 -131 -8 -190 11 -33 127 -154 625 -653 343 -345 631 -625 656 -640 58 -35 164 -38 221 -7 20 11 1044 1026 2276 2255 l2240 2235 18 58 c21 72 15 130 -21 197 -18 34 -668 688 -2266 2281 -1232 1229 -2258 2245 -2279 2257 -50 30 -139 38 -194 17z"
       id="path4" />
  </g>
</svg>
